<svg width="18" height="18" viewBox="0 0 18 18" fill="none" xmlns="http://www.w3.org/2000/svg">
<g clip-path="url(#clip0_12_635)">
<path d="M17.5171 3.83072C17.5171 3.60237 17.3791 3.39661 17.1679 3.30981L9.21392 0.0422358C9.0768 -0.0140786 8.92306 -0.0140786 8.78593 0.0422358L0.831938 3.30981C0.620723 3.39657 0.482788 3.60237 0.482788 3.83072V14.1693C0.482788 14.3976 0.620688 14.6034 0.831938 14.6902L8.78593 17.9578C8.92158 18.0135 9.07405 18.0147 9.21322 17.9577C9.22001 17.9555 8.91887 18.079 17.1679 14.6902C17.3792 14.6034 17.5171 14.3976 17.5171 14.1693V3.83072ZM8.99993 6.53684L6.06918 5.33287L12.4028 2.56991L15.5296 3.85441L8.99993 6.53684ZM1.60908 4.71824L4.13763 5.75699V8.68759C4.13763 8.99859 4.38978 9.25074 4.70078 9.25074C5.01177 9.25074 5.26392 8.99859 5.26392 8.68759V6.21968L8.43678 7.52312V16.5967L1.60908 13.7918V4.71824ZM8.99993 1.17194L10.9521 1.97393L4.61849 4.73689L2.47027 3.85437L8.99993 1.17194ZM9.56307 7.52312L16.3908 4.71824V13.7918L9.56307 16.5967V7.52312Z" fill="#FFC529"/>
</g>
<defs>
<clipPath id="clip0_12_635">
<rect width="18" height="18" fill="white"/>
</clipPath>
</defs>
</svg>
