<svg width="18" height="22" viewBox="0 0 18 22" fill="none" xmlns="http://www.w3.org/2000/svg">
<path d="M9.29931 6.4501V0.600098H4.74931C4.23214 0.600098 3.73615 0.805544 3.37045 1.17124C3.00476 1.53694 2.79931 2.03293 2.79931 2.5501V16.8501C2.79931 17.3673 3.00476 17.8633 3.37045 18.229C3.73615 18.5947 4.23214 18.8001 4.74931 18.8001H15.1493C15.6665 18.8001 16.1625 18.5947 16.5282 18.229C16.8939 17.8633 17.0993 17.3673 17.0993 16.8501V8.4001H11.2493C10.7321 8.4001 10.2361 8.19465 9.87045 7.82896C9.50476 7.46326 9.29931 6.96727 9.29931 6.4501ZM10.5993 6.4501V0.925098L16.7743 7.1001H11.2493C11.0769 7.1001 10.9116 7.03162 10.7897 6.90972C10.6678 6.78782 10.5993 6.62249 10.5993 6.4501ZM0.19931 4.5001C0.19931 4.15532 0.336274 3.82466 0.580072 3.58086C0.823869 3.33706 1.15453 3.2001 1.49931 3.2001V16.8501C1.49931 17.7121 1.84172 18.5387 2.45121 19.1482C3.06071 19.7577 3.88736 20.1001 4.74931 20.1001H14.4993C14.4993 20.4449 14.3623 20.7755 14.1185 21.0193C13.8748 21.2631 13.5441 21.4001 13.1993 21.4001H4.81171C3.58843 21.4001 2.41524 20.9142 1.55025 20.0492C0.685258 19.1842 0.19931 18.011 0.19931 16.7877V4.5001Z" fill="#9C9C9C"/>
</svg>
