<svg width="18" height="18" viewBox="0 0 18 18" fill="none" xmlns="http://www.w3.org/2000/svg">
<g clip-path="url(#clip0_12_628)">
<path d="M10.7981 1.23567L7.13945 4.89424C7.13238 4.90127 7.12799 4.90982 7.12096 4.91692C8.02226 4.78564 8.94817 4.87564 9.80647 5.21033L12.2896 2.72725C13.1122 1.90462 14.4501 1.90462 15.2727 2.72725C16.0953 3.5498 16.0953 4.88774 15.2727 5.71029C15.1324 5.85063 11.4026 9.58047 11.6141 9.36886C10.785 10.1981 9.42471 10.1626 8.63099 9.36886C8.21991 8.95778 7.5506 8.95778 7.13945 9.36886L6.49911 10.0092C6.67672 10.311 6.88035 10.6014 7.13945 10.8605C8.70179 12.4228 11.391 12.5476 13.083 10.879C13.0901 10.8719 13.0986 10.8675 13.1057 10.8605L16.7642 7.2019C18.4117 5.55434 18.4117 2.88323 16.7642 1.23567C15.1167 -0.411891 12.4456 -0.411891 10.7981 1.23567Z" fill="#FFC529"/>
<path d="M8.20164 12.7816L5.71054 15.2727C4.88799 16.0953 3.55005 16.0953 2.7275 15.2727C1.90488 14.4501 1.90488 13.1122 2.7275 12.2896C2.86777 12.1493 6.60559 8.41149 6.39405 8.62302C7.22318 7.7939 8.58344 7.8293 9.37716 8.62302C9.78824 9.03417 10.4576 9.03417 10.8687 8.62302L11.509 7.98269C11.3314 7.6809 11.1278 7.39051 10.8687 7.13148C9.30935 5.57206 6.62207 5.43938 4.92515 7.11295C4.91809 7.11999 4.90958 7.12442 4.90248 7.13148L1.23589 10.7981C-0.411602 12.4456 -0.411673 15.1167 1.23589 16.7643C2.88345 18.4118 5.55462 18.4118 7.20212 16.7643L10.8687 13.0977C10.8757 13.0906 10.8801 13.0822 10.8872 13.075C9.98586 13.2063 9.05998 13.1163 8.20164 12.7816Z" fill="#FFC529"/>
</g>
<defs>
<clipPath id="clip0_12_628">
<rect width="18" height="18" fill="white"/>
</clipPath>
</defs>
</svg>
