<svg width="35" height="35" viewBox="0 0 35 35" fill="none" xmlns="http://www.w3.org/2000/svg">
<path d="M20.9038 22.8018V28.6692L24.6651 33.2821C25.7952 32.7454 26.8646 32.0893 27.8549 31.3248L20.9038 22.8018Z" fill="black"/>
<path d="M20.9038 10.2438L26.4275 2.6381C25.358 1.97135 24.2195 1.42228 23.0318 1.00049L20.9038 3.932V10.2438Z" fill="black"/>
<path d="M17.1949 3.43527e-06C16.5755 -0.000336446 15.9565 0.0325467 15.3406 0.0985192V34.8563C16.5733 34.9877 17.8165 34.9877 19.0493 34.8563V0.0985192C18.4334 0.0324964 17.8144 -0.000386955 17.1949 3.43527e-06Z" fill="black"/>
<path d="M31.9117 26.8981L23.7477 16.8907L31.0622 6.81975C30.2862 5.82341 29.4054 4.91327 28.435 4.10498L19.0603 17.022L29.5297 29.8515C30.4257 28.9556 31.2222 27.9654 31.9051 26.8981" fill="black"/>
<path d="M31.4125 16.8908L34.1272 13.1449C33.7628 11.7202 33.2191 10.3475 32.5093 9.05957L26.7295 17.02L33.0654 24.7855C33.6882 23.4355 34.1348 22.0109 34.3943 20.547L31.4125 16.8908Z" fill="black"/>
<path d="M20.9038 22.8018V28.6692L24.6651 33.2821C25.7952 32.7454 26.8646 32.0893 27.8549 31.3248L20.9038 22.8018Z" fill="#FFC529"/>
<path d="M20.9038 10.2438L26.4275 2.6381C25.358 1.97135 24.2195 1.42228 23.0318 1.00049L20.9038 3.932V10.2438Z" fill="#FFC529"/>
<path d="M17.1949 3.43527e-06C16.5755 -0.000336446 15.9565 0.0325467 15.3406 0.0985192V34.8563C16.5733 34.9877 17.8165 34.9877 19.0493 34.8563V0.0985192C18.4334 0.0324964 17.8144 -0.000386955 17.1949 3.43527e-06Z" fill="#2054A5"/>
<path d="M31.9117 26.8981L23.7477 16.8907L31.0622 6.81975C30.2862 5.82341 29.4054 4.91327 28.435 4.10498L19.0603 17.022L29.5297 29.8515C30.4257 28.9556 31.2222 27.9654 31.9051 26.8981" fill="#2054A5"/>
<path d="M31.4125 16.8908L34.1272 13.1449C33.7628 11.7202 33.2191 10.3475 32.5093 9.05957L26.7295 17.02L33.0654 24.7855C33.6882 23.4355 34.1348 22.0109 34.3943 20.547L31.4125 16.8908Z" fill="#FFC529"/>
<path d="M13.4951 22.8018V28.6692L9.7316 33.2821C8.60161 32.7443 7.53226 32.0874 6.54175 31.3226L13.4951 22.8018Z" fill="#FFC529"/>
<path d="M13.4954 10.2438L7.97168 2.6381C9.03841 1.97192 10.174 1.42286 11.3586 1.00049L13.4866 3.932L13.4954 10.2438Z" fill="#FFC529"/>
<path d="M2.48486 26.898L10.6511 16.8906L3.34746 6.81972C4.11547 5.82086 4.98895 4.90774 5.95276 4.09619L15.3297 17.0132L4.86247 29.8514C3.96635 28.9551 3.16924 27.9649 2.48486 26.898Z" fill="#2054A5"/>
<path d="M2.98625 16.8906L0.267098 13.1468C0.631544 11.7221 1.17519 10.3494 1.88502 9.06152L7.66484 17.0219L1.32892 24.7875C0.705129 23.4378 0.258451 22.0131 0 20.5489L2.98625 16.8906Z" fill="#FFC529"/>
</svg>
