<svg width="26" height="28" viewBox="0 0 26 28" fill="none" xmlns="http://www.w3.org/2000/svg">
<path d="M13.9563 0.666992C14.9647 0.666992 15.8776 1.22699 16.3818 2.05366C16.6271 2.45366 16.7906 2.94699 16.7497 3.46699C16.7224 3.86699 16.8451 4.26699 17.0631 4.64033C17.758 5.77366 19.2978 6.20033 20.4969 5.56033C21.8459 4.78699 23.5491 5.25366 24.3258 6.57366L25.2388 8.14699C26.0291 9.46699 25.593 11.1603 24.2304 11.9203C23.0722 12.6003 22.6634 14.107 23.3584 15.2537C23.5764 15.6137 23.8216 15.9203 24.2032 16.107C24.6801 16.3603 25.048 16.7603 25.3069 17.1603C25.811 17.987 25.7702 19.0003 25.2796 19.8937L24.3258 21.4937C23.8216 22.347 22.8814 22.8803 21.914 22.8803C21.4371 22.8803 20.9057 22.747 20.4696 22.4803C20.1153 22.2537 19.7066 22.1737 19.2705 22.1737C17.9215 22.1737 16.7906 23.2803 16.7497 24.6003C16.7497 26.1337 15.4961 27.3337 13.9291 27.3337H12.0759C10.4953 27.3337 9.24171 26.1337 9.24171 24.6003C9.21446 23.2803 8.08349 22.1737 6.73451 22.1737C6.28485 22.1737 5.87607 22.2537 5.53541 22.4803C5.09938 22.747 4.55433 22.8803 4.09105 22.8803C3.10997 22.8803 2.16977 22.347 1.6656 21.4937L0.7254 19.8937C0.221235 19.027 0.193983 17.987 0.698148 17.1603C0.916166 16.7603 1.32495 16.3603 1.78824 16.107C2.16977 15.9203 2.41504 15.6137 2.64668 15.2537C3.32799 14.107 2.9192 12.6003 1.76098 11.9203C0.412 11.1603 -0.024035 9.46699 0.752653 8.14699L1.6656 6.57366C2.45591 5.25366 4.14555 4.78699 5.50816 5.56033C6.69363 6.20033 8.23338 5.77366 8.92831 4.64033C9.14633 4.26699 9.26896 3.86699 9.24171 3.46699C9.21446 2.94699 9.36435 2.45366 9.62324 2.05366C10.1274 1.22699 11.0404 0.693659 12.0351 0.666992H13.9563ZM13.0161 10.2403C10.8768 10.2403 9.14633 11.9203 9.14633 14.0137C9.14633 16.107 10.8768 17.7737 13.0161 17.7737C15.1554 17.7737 16.8451 16.107 16.8451 14.0137C16.8451 11.9203 15.1554 10.2403 13.0161 10.2403Z" fill="white"/>
</svg>
