<svg width="189" height="189" viewBox="0 0 189 189" fill="none" xmlns="http://www.w3.org/2000/svg">
<path fill-rule="evenodd" clip-rule="evenodd" d="M130.6 165C127.05 152.67 131.66 154.05 136.05 144.74C137.84 140.95 137.22 137.93 134.96 134.6C133.48 132.42 131.89 129.6 132.77 126.93C133.77 123.93 136.45 123.39 138.97 122.36C145.45 119.72 146.67 113.87 149.18 108.07C149.737 106.518 150.853 105.231 152.31 104.46C159.46 101.28 164.18 112.99 161.99 118.3C160.62 121.61 157.99 124.11 156.63 127.45C155.38 130.45 155.77 132.56 156.63 135.52C157.95 140.22 156.31 145.13 153.55 148.96C151.98 151.14 150.19 153.23 149.24 155.78C147.81 159.6 144.58 162.86 140.81 165.18C137.697 165.18 134.42 165.18 130.98 165.18L130.6 165Z" fill="url(#paint0_linear_20_2075)"/>
<path fill-rule="evenodd" clip-rule="evenodd" d="M132.85 165.15C135.121 162.046 137.163 158.781 138.96 155.38C138.64 153.097 137.987 150.873 137.02 148.78C138.126 150.366 139.033 152.082 139.72 153.89C142.336 148.498 144.22 142.781 145.32 136.89C143.853 133.642 141.821 130.679 139.32 128.14C141.861 130.094 144.012 132.51 145.66 135.26C147.23 127.26 148.32 119.86 154.21 110.97C152.206 115.207 150.595 119.618 149.4 124.15C151.766 122.293 154.449 120.88 157.32 119.98C154.205 121.462 151.37 123.472 148.94 125.92C147.26 132.73 146.44 138.99 144.29 146.1C146.667 144.235 149.36 142.813 152.24 141.9C149.044 143.421 146.145 145.5 143.68 148.04C141.67 154.041 138.986 159.794 135.68 165.19L132.85 165.15Z" fill="#003E82"/>
<path fill-rule="evenodd" clip-rule="evenodd" d="M156 103.84C153.54 102.12 153.52 100.32 154.24 99.8399C154.96 99.3599 156.55 101.16 156.24 103.76C156.41 104.04 156.57 104.32 156.73 104.6C158.065 106.988 159.141 109.513 159.94 112.13C160.742 114.736 161.281 117.416 161.55 120.13C161.82 122.857 161.82 125.603 161.55 128.33C161.278 131.044 160.735 133.724 159.93 136.33C159.12 138.954 158.027 141.482 156.67 143.87C156.59 144.02 156.33 143.87 156.42 143.74C156.51 143.61 156.75 143.16 156.9 142.87C158.161 140.458 159.167 137.921 159.9 135.3C160.639 132.688 161.111 130.007 161.31 127.3C161.52 124.581 161.46 121.847 161.13 119.14C160.803 116.447 160.207 113.794 159.35 111.22C158.492 108.67 157.369 106.216 156 103.9C155.996 103.88 155.996 103.86 156 103.84ZM158 106.39C158.548 106.042 159.051 105.629 159.5 105.16C159.839 104.805 160.092 104.378 160.24 103.91C160.314 103.68 160.33 103.436 160.286 103.198C160.242 102.961 160.141 102.738 159.99 102.55C159.31 101.68 158.71 102.13 158.33 103.05C158.132 103.567 158.004 104.109 157.95 104.66C157.876 105.236 157.893 105.819 158 106.39ZM158 108.12C157.827 107.904 157.633 107.706 157.42 107.53C157.195 107.355 156.954 107.201 156.7 107.07C156.232 106.813 155.72 106.647 155.19 106.58C154.25 106.47 153.58 106.81 153.85 107.65C153.911 107.847 154.025 108.023 154.18 108.16C154.336 108.285 154.517 108.377 154.71 108.43C154.932 108.49 155.16 108.523 155.39 108.53C155.63 108.545 155.87 108.545 156.11 108.53C156.751 108.462 157.384 108.331 158 108.14V108.12ZM159.84 110.73C160.422 110.464 160.969 110.128 161.47 109.73C161.857 109.423 162.165 109.029 162.37 108.58C162.466 108.361 162.508 108.122 162.492 107.884C162.476 107.646 162.404 107.414 162.28 107.21C161.72 106.21 161.05 106.64 160.58 107.5C160.314 107.987 160.119 108.509 160 109.05C159.93 109.336 159.88 109.627 159.85 109.92C159.82 110.202 159.82 110.487 159.85 110.77L159.84 110.73ZM159.6 112.44C159.292 111.967 158.895 111.56 158.43 111.24C157.993 110.934 157.506 110.707 156.99 110.57C156.616 110.45 156.212 110.468 155.85 110.62C155.58 110.76 155.45 111.03 155.53 111.48C155.7 112.36 156.68 112.58 157.67 112.6C158.317 112.611 158.963 112.558 159.6 112.44ZM161.11 115.25C161.726 115.043 162.313 114.761 162.86 114.41C163.261 114.152 163.602 113.811 163.86 113.41C163.985 113.204 164.057 112.97 164.071 112.73C164.085 112.489 164.04 112.249 163.94 112.03C163.49 111.03 162.79 111.33 162.21 112.12C161.895 112.576 161.64 113.07 161.45 113.59C161.347 113.867 161.263 114.151 161.2 114.44C161.144 114.717 161.107 114.998 161.09 115.28L161.11 115.25ZM160.68 116.92C160.556 116.673 160.409 116.439 160.24 116.22C160.067 115.992 159.869 115.784 159.65 115.6C159.444 115.415 159.223 115.248 158.99 115.1C158.77 114.97 158.539 114.859 158.3 114.77C157.41 114.44 156.68 114.6 156.75 115.49C156.82 116.38 157.75 116.72 158.75 116.86C159.393 116.944 160.043 116.964 160.69 116.92H160.68ZM161.76 119.18C161.76 119.18 162 119.13 162.35 119.03C162.778 118.908 163.194 118.744 163.59 118.54C164.033 118.325 164.422 118.014 164.73 117.63C164.875 117.44 164.972 117.219 165.012 116.983C165.052 116.748 165.034 116.507 164.96 116.28C164.8 115.76 164.52 115.55 164.22 115.56C163.822 115.631 163.465 115.849 163.22 116.17C162.847 116.58 162.534 117.042 162.29 117.54C162.008 118.053 161.806 118.606 161.69 119.18H161.76Z" fill="url(#paint1_linear_20_2075)"/>
<path fill-rule="evenodd" clip-rule="evenodd" d="M135.4 165.11C136.71 155.47 139.48 157.87 145.4 152.79C147.8 150.72 148.3 148.45 147.75 145.44C147.39 143.44 147.13 141.05 148.57 139.44C150.01 137.83 152.2 138.14 154.26 138.22C159.56 138.41 162.19 134.74 165.7 131.51C166.563 130.614 167.729 130.072 168.97 129.99C174.89 129.99 174.59 139.6 171.45 142.59C169.45 144.46 166.93 145.38 164.94 147.25C163.16 148.93 162.79 150.52 162.45 152.82C161.93 156.49 159.29 159.38 156.21 161.17C154.374 162.057 152.669 163.191 151.14 164.54C150.893 164.793 150.633 165.033 150.36 165.26C145.87 165.18 140.89 165.14 135.47 165.15L135.4 165.11Z" fill="url(#paint2_linear_20_2075)"/>
<path fill-rule="evenodd" clip-rule="evenodd" d="M138.24 165.15C140.282 163.912 142.249 162.553 144.13 161.08C144.6 159.398 144.826 157.657 144.8 155.91C145.078 157.349 145.182 158.816 145.11 160.28C148.572 157.37 151.627 154.006 154.19 150.28C154.158 147.57 153.654 144.887 152.7 142.35C153.86 144.493 154.613 146.833 154.92 149.25C158.45 144.2 161.46 139.43 168.26 135.11C165.577 137.418 163.113 139.968 160.9 142.73C163.11 142.186 165.4 142.047 167.66 142.32C165.052 142.371 162.473 142.879 160.04 143.82C156.8 148 154.32 152.08 150.66 156.33C152.879 155.778 155.18 155.636 157.45 155.91C154.773 155.961 152.128 156.493 149.64 157.48C147.05 160.32 144.193 162.905 141.11 165.2L138.24 165.15Z" fill="#003E82"/>
<path fill-rule="evenodd" clip-rule="evenodd" d="M64.6397 165.2C66.6997 152.2 62.0297 154.09 56.2997 144.88C53.9297 141.08 54.2097 137.81 56.1997 133.99C57.4997 131.49 58.8497 128.36 57.5797 125.59C56.1897 122.59 53.2397 122.3 50.4397 121.53C43.2397 119.53 41.2297 113.53 37.8597 107.66C37.0767 106.087 35.731 104.866 34.0897 104.24C26.0897 101.76 22.5597 114.76 25.5397 120.12C27.3997 123.46 30.4597 125.78 32.3497 129.12C34.0397 132.12 33.8897 134.42 33.3497 137.66C32.5297 142.82 34.8697 147.81 38.2697 151.52C40.1997 153.63 42.3597 155.62 43.6797 158.2C45.2059 160.984 47.4109 163.336 50.0897 165.04C54.6297 165.08 59.4797 165.12 64.6397 165.2Z" fill="url(#paint3_linear_20_2075)"/>
<path fill-rule="evenodd" clip-rule="evenodd" d="M61.3098 165.15C58.8569 162.435 56.5885 159.558 54.5198 156.54C54.573 154.082 54.9909 151.645 55.7598 149.31C54.7795 151.126 54.0304 153.058 53.5298 155.06C50.0989 149.657 47.4082 143.818 45.5298 137.7C46.6953 134.081 48.4894 130.696 50.8298 127.7C48.3821 130.076 46.4043 132.892 44.9998 136C42.3398 127.7 40.2798 120 32.9398 111.33C35.586 115.572 37.8387 120.047 39.6698 124.7C36.9302 123.03 33.9118 121.868 30.7598 121.27C34.241 122.455 37.4919 124.231 40.3698 126.52C42.9898 133.52 44.6198 140.05 47.7798 147.31C45.0272 145.635 41.9955 144.47 38.8298 143.87C42.4103 145.072 45.7439 146.912 48.6698 149.3C51.2987 154.889 54.5098 160.185 58.2498 165.1L61.3098 165.15Z" fill="url(#paint4_linear_20_2075)"/>
<path fill-rule="evenodd" clip-rule="evenodd" d="M47.7199 112.16C50.4899 110.94 50.8699 109.16 50.2499 108.55C49.6299 107.94 47.7099 109.39 47.4599 112.03C47.2399 112.27 47.0199 112.51 46.8099 112.76C45.0141 114.856 43.4485 117.139 42.1399 119.57C40.8417 122.002 39.7898 124.558 38.9999 127.2C38.2015 129.849 37.659 132.568 37.3799 135.32C37.1048 138.073 37.1048 140.847 37.3799 143.6C37.6632 146.354 38.2432 149.07 39.1099 151.7C39.1699 151.88 39.4399 151.8 39.3899 151.63C39.3399 151.46 39.1799 150.99 39.0899 150.63C38.3043 147.995 37.8048 145.282 37.5998 142.54C37.1835 137.057 37.8634 131.547 39.5998 126.33C40.4557 123.731 41.5713 121.225 42.9299 118.85C44.2899 116.46 45.8988 114.221 47.7299 112.17L47.7199 112.16ZM45.2799 114.29C44.7891 113.845 44.3588 113.337 43.9999 112.78C43.7304 112.365 43.5625 111.892 43.5098 111.4C43.4834 111.157 43.517 110.912 43.6076 110.685C43.6983 110.458 43.8433 110.257 44.0299 110.1C44.8699 109.37 45.3799 109.94 45.5699 110.92C45.6667 111.471 45.6869 112.033 45.6299 112.59C45.5913 113.174 45.4596 113.748 45.2399 114.29H45.2799ZM44.9999 116C45.2155 115.818 45.4502 115.661 45.6999 115.53C45.9588 115.408 46.2261 115.304 46.4999 115.22C47.0137 115.06 47.5532 114.999 48.0899 115.04C49.0399 115.12 49.6399 115.58 49.1999 116.36C49.1031 116.543 48.9578 116.695 48.7799 116.8C48.5957 116.892 48.3951 116.946 48.1898 116.96C47.9638 116.984 47.7359 116.984 47.5098 116.96C47.2698 116.919 47.0326 116.862 46.7999 116.79C46.1749 116.588 45.5719 116.323 44.9999 116ZM42.6698 118.22C42.1448 117.831 41.671 117.378 41.2598 116.87C40.9429 116.489 40.7171 116.041 40.5998 115.56C40.5449 115.323 40.549 115.075 40.6118 114.84C40.6746 114.605 40.7941 114.388 40.9599 114.21C41.6999 113.39 42.2799 113.9 42.5799 114.84C42.7481 115.374 42.839 115.93 42.8498 116.49C42.8647 116.786 42.8647 117.083 42.8498 117.38C42.8235 117.664 42.77 117.946 42.6898 118.22H42.6698ZM42.5699 119.96C42.9609 119.536 43.4337 119.196 43.9599 118.96C44.4549 118.748 44.9825 118.623 45.5199 118.59C45.9133 118.545 46.31 118.641 46.6399 118.86C46.7658 118.971 46.8487 119.123 46.8743 119.29C46.8999 119.456 46.8665 119.626 46.7799 119.77C46.4398 120.61 45.4198 120.63 44.4398 120.46C43.8004 120.341 43.1741 120.16 42.5699 119.92V119.96ZM40.5098 122.44C39.9432 122.112 39.4192 121.716 38.9499 121.26C38.5925 120.921 38.3187 120.503 38.1499 120.04C38.0684 119.813 38.0432 119.57 38.0763 119.332C38.1093 119.093 38.1998 118.866 38.3399 118.67C38.9799 117.76 39.6098 118.19 40.0299 119.09C40.2553 119.603 40.41 120.145 40.4899 120.7C40.5417 120.994 40.5685 121.292 40.5699 121.59C40.5755 121.874 40.5554 122.159 40.5098 122.44ZM40.6099 124.18C40.7813 123.96 40.9721 123.756 41.1799 123.57C41.4016 123.383 41.6391 123.216 41.8899 123.07C42.1342 122.932 42.3882 122.812 42.6499 122.71C42.8889 122.62 43.137 122.556 43.3899 122.52C44.3899 122.37 45.0299 122.67 44.7799 123.52C44.5299 124.37 43.5199 124.52 42.5399 124.52C41.8874 124.472 41.2411 124.362 40.6099 124.19V124.18ZM39.0899 126.18C38.901 126.102 38.7173 126.011 38.5399 125.91C38.1401 125.704 37.7616 125.46 37.4099 125.18C37.0127 124.886 36.6907 124.502 36.4699 124.06C36.3569 123.847 36.2979 123.611 36.2979 123.37C36.2979 123.129 36.3569 122.892 36.4699 122.68C36.7199 122.19 37.0399 122.04 37.3399 122.11C37.7097 122.266 38.0112 122.55 38.1898 122.91C38.4758 123.39 38.6913 123.909 38.8299 124.45C39.0066 125.019 39.0844 125.614 39.0599 126.21L39.0899 126.18Z" fill="url(#paint5_linear_20_2075)"/>
<path fill-rule="evenodd" clip-rule="evenodd" d="M59.1398 165.13C56.6698 156.6 53.9998 159 47.4098 154.61C44.6198 152.72 43.8098 150.36 44.0198 147.11C44.1598 144.97 44.1398 142.38 42.4098 140.86C40.6798 139.34 38.4098 139.93 36.2198 140.27C30.6298 141.14 27.3898 137.59 23.2798 134.6C22.2497 133.763 20.9452 133.339 19.6198 133.41C13.3398 134.19 14.8498 144.3 18.5398 147.07C20.8498 148.81 23.6798 149.46 26.0198 151.19C28.1098 152.75 28.6998 154.38 29.3398 156.79C30.3398 160.61 33.4998 163.34 36.9898 164.84L37.6998 165.15C43.8698 165.05 51.0698 165 59.1398 165.13Z" fill="url(#paint6_linear_20_2075)"/>
<path fill-rule="evenodd" clip-rule="evenodd" d="M53 165.08C51.85 164.47 50.77 163.86 49.76 163.24C49.0542 161.514 48.6028 159.695 48.42 157.84C48.2982 159.399 48.3653 160.967 48.62 162.51C44.5782 159.849 40.9178 156.649 37.74 153C37.4341 150.123 37.6406 147.215 38.35 144.41C37.3757 146.827 36.8635 149.404 36.84 152.01C32.47 147.1 28.69 142.42 20.96 138.7C24.087 140.809 27.0128 143.203 29.7 145.85C27.2882 145.553 24.8427 145.692 22.48 146.26C25.249 145.99 28.044 146.203 30.74 146.89C34.74 150.89 37.82 154.89 42.23 158.97C39.8083 158.668 37.3521 158.807 34.98 159.38C37.8218 159.096 40.6915 159.33 43.45 160.07C45.5318 161.883 47.7334 163.553 50.04 165.07L53 165.08Z" fill="url(#paint7_linear_20_2075)"/>
<g opacity="0.25">
<path fill-rule="evenodd" clip-rule="evenodd" d="M142.09 120.55V159.55C142.09 161.007 141.512 162.404 140.482 163.435C139.453 164.467 138.057 165.047 136.6 165.05H130.75L130.6 164.97C127.05 152.64 131.66 154.02 136.05 144.72C137.84 140.92 137.22 137.9 134.96 134.57C133.48 132.39 131.89 129.63 132.77 126.91C133.77 123.91 136.45 123.36 138.97 122.33C140.088 121.886 141.139 121.287 142.09 120.55Z" fill="#07080D"/>
<path fill-rule="evenodd" clip-rule="evenodd" d="M64.6597 165.06H55.1797C53.721 165.06 52.322 164.48 51.2906 163.449C50.2591 162.418 49.6797 161.019 49.6797 159.56V121.3L50.4397 121.53C53.2397 122.3 56.1897 122.59 57.5697 125.6C58.8497 128.37 57.4997 131.5 56.1897 134C54.1897 137.81 53.9297 141.09 56.2897 144.88C61.9997 154.06 66.6697 152.21 64.6597 165.06Z" fill="#07080D"/>
</g>
<path d="M58.8696 57.5299H132.87C134.196 57.5299 135.467 58.0567 136.405 58.9944C137.343 59.9321 137.87 61.2038 137.87 62.5299V141.53H53.8696V62.5299C53.8696 61.2038 54.3964 59.9321 55.3341 58.9944C56.2718 58.0567 57.5435 57.5299 58.8696 57.5299Z" fill="url(#paint8_linear_20_2075)"/>
<path d="M53.8696 141.58H137.87V160.06C137.87 161.386 137.343 162.658 136.405 163.595C135.467 164.533 134.196 165.06 132.87 165.06H58.8696C57.5435 165.06 56.2718 164.533 55.3341 163.595C54.3964 162.658 53.8696 161.386 53.8696 160.06V141.58Z" fill="#E3C75C"/>
<path opacity="0.2" d="M95.8897 127.51C109.122 127.51 119.85 116.783 119.85 103.55C119.85 90.3172 109.122 79.59 95.8897 79.59C82.6569 79.59 71.9297 90.3172 71.9297 103.55C71.9297 116.783 82.6569 127.51 95.8897 127.51Z" fill="#07080D"/>
<path d="M95.8897 123.51C109.122 123.51 119.85 112.783 119.85 99.55C119.85 86.3172 109.122 75.59 95.8897 75.59C82.6569 75.59 71.9297 86.3172 71.9297 99.55C71.9297 112.783 82.6569 123.51 95.8897 123.51Z" fill="url(#paint9_linear_20_2075)"/>
<path d="M95.8898 119.85C107.101 119.85 116.19 110.761 116.19 99.55C116.19 88.3386 107.101 79.25 95.8898 79.25C84.6785 79.25 75.5898 88.3386 75.5898 99.55C75.5898 110.761 84.6785 119.85 95.8898 119.85Z" fill="#AD8E36"/>
<path d="M95.89 117.46C105.781 117.46 113.8 109.441 113.8 99.5499C113.8 89.6585 105.781 81.6399 95.89 81.6399C85.9986 81.6399 77.98 89.6585 77.98 99.5499C77.98 109.441 85.9986 117.46 95.89 117.46Z" fill="url(#paint10_linear_20_2075)"/>
<path d="M94.7799 107.45C94.5299 107.702 94.2323 107.902 93.9045 108.039C93.5767 108.175 93.2251 108.246 92.87 108.246C92.5148 108.246 92.1632 108.175 91.8354 108.039C91.5076 107.902 91.21 107.702 90.9599 107.45L84.9999 101.52C84.5221 101.006 84.2621 100.327 84.2749 99.6253C84.2876 98.9236 84.572 98.2543 85.0681 97.7581C85.5643 97.2619 86.2337 96.9775 86.9353 96.9648C87.6369 96.9521 88.3161 97.212 88.83 97.6899L92.37 101.23C92.4344 101.298 92.512 101.352 92.5979 101.389C92.6839 101.425 92.7764 101.444 92.87 101.444C92.9635 101.444 93.056 101.425 93.142 101.389C93.2279 101.352 93.3055 101.298 93.37 101.23L102.94 91.6599C103.191 91.4084 103.489 91.2088 103.817 91.0725C104.145 90.9361 104.496 90.8657 104.851 90.8652C105.207 90.8648 105.558 90.9343 105.887 91.0698C106.215 91.2053 106.513 91.4041 106.765 91.6549C107.016 91.9057 107.216 92.2036 107.352 92.5316C107.489 92.8596 107.559 93.2112 107.56 93.5664C107.56 93.9216 107.491 94.2734 107.355 94.6017C107.22 94.93 107.021 95.2284 106.77 95.4799L94.7799 107.45Z" fill="white"/>
<path d="M127.91 147.31H117.91C117.357 147.31 116.91 147.758 116.91 148.31V158.31C116.91 158.862 117.357 159.31 117.91 159.31H127.91C128.462 159.31 128.91 158.862 128.91 158.31V148.31C128.91 147.758 128.462 147.31 127.91 147.31Z" fill="white"/>
<path d="M62.8696 149.11H99.3596" stroke="white" stroke-width="3" stroke-miterlimit="10"/>
<path opacity="0.4" d="M62.8696 157.52H81.1096" stroke="white" stroke-width="3" stroke-miterlimit="10"/>
<path d="M166.04 165.05H25.7297C25.1609 165.05 24.6997 165.509 24.6997 166.075C24.6997 166.641 25.1609 167.1 25.7297 167.1H166.04C166.609 167.1 167.07 166.641 167.07 166.075C167.07 165.509 166.609 165.05 166.04 165.05Z" fill="#00254D"/>
<path d="M163.27 93.6L164.62 91.33L163.51 88.93C163.479 88.8683 163.467 88.7992 163.474 88.7307C163.481 88.6622 163.508 88.5972 163.551 88.5435C163.594 88.4898 163.652 88.4496 163.717 88.4277C163.783 88.4058 163.853 88.4031 163.92 88.42L166.5 89L168.43 87.2C168.481 87.1558 168.543 87.1264 168.61 87.115C168.676 87.1037 168.745 87.1107 168.807 87.1354C168.87 87.1602 168.925 87.2016 168.966 87.2553C169.007 87.309 169.033 87.3728 169.04 87.44L169.29 90.07L171.6 91.36C171.658 91.3918 171.707 91.4387 171.741 91.4959C171.775 91.5531 171.793 91.6184 171.793 91.685C171.793 91.7515 171.775 91.8168 171.741 91.874C171.707 91.9312 171.658 91.9782 171.6 92.01L169.17 93.01L168.66 95.6C168.645 95.6652 168.612 95.7252 168.566 95.7734C168.519 95.8216 168.46 95.8563 168.396 95.8737C168.331 95.8912 168.263 95.8907 168.198 95.8725C168.134 95.8542 168.076 95.8188 168.03 95.77L166.28 93.77L163.66 94.09C163.598 94.0969 163.535 94.0879 163.477 94.0639C163.419 94.0399 163.368 94.0016 163.33 93.9526C163.291 93.9037 163.265 93.8457 163.254 93.784C163.244 93.7223 163.249 93.659 163.27 93.6Z" fill="url(#paint11_linear_20_2075)"/>
<path d="M62.8 45.4299L64.5 42.5599L63.1 39.5599C63.0644 39.4819 63.0512 39.3955 63.062 39.3105C63.0728 39.2254 63.1072 39.145 63.1613 39.0785C63.2154 39.0119 63.287 38.9618 63.3681 38.9338C63.4491 38.9058 63.5364 38.901 63.62 38.9199L66.87 39.6499L69.32 37.3799C69.3834 37.3216 69.4618 37.2822 69.5464 37.2663C69.631 37.2503 69.7184 37.2584 69.7986 37.2897C69.8789 37.3209 69.9487 37.3741 70.0002 37.4431C70.0517 37.5121 70.0828 37.5941 70.09 37.6799L70.4 40.9999L73.31 42.6199C73.3857 42.6584 73.4492 42.7171 73.4936 42.7894C73.538 42.8618 73.5615 42.945 73.5615 43.0299C73.5615 43.1148 73.538 43.198 73.4936 43.2704C73.4492 43.3428 73.3857 43.4014 73.31 43.4399L70.25 44.7699L69.56 47.9999C69.5453 48.0847 69.5066 48.1634 69.4485 48.2269C69.3905 48.2903 69.3154 48.3358 69.2323 48.3579C69.1491 48.3799 69.0614 48.3778 68.9795 48.3515C68.8976 48.3253 68.8249 48.2762 68.77 48.2099L66.56 45.7099L63.25 46.1099C63.1664 46.1186 63.0821 46.1042 63.0061 46.0682C62.9301 46.0323 62.8654 45.9763 62.8191 45.9062C62.7727 45.8361 62.7464 45.7547 62.743 45.6707C62.7397 45.5868 62.7594 45.5035 62.8 45.4299Z" fill="url(#paint12_linear_20_2075)"/>
<path d="M164.92 69.9899L161.75 65.6299L157.5 68.3099L154.18 64.1499L149.8 66.2199L146.81 63.5099L145.44 65.0299L149.44 68.6399L153.59 66.6899L157.04 71.0199L161.22 68.3799L164.1 72.3299L164.92 69.9899Z" fill="url(#paint13_linear_20_2075)"/>
<path d="M45.9897 43.43L42.7197 43.7599L41.5996 38.56L36.7596 38.45L35.2896 34.7L33.3896 35.4399L35.3596 40.47L39.9396 40.56L41.0996 45.97L46.0196 45.4799L45.9897 43.43Z" fill="url(#paint14_linear_20_2075)"/>
<path d="M122.45 38.7799L121.23 41.8299L116.11 40.4099L113.77 44.6499L109.76 44.2099L109.53 46.2299L114.9 46.8299L117.11 42.8099L122.44 44.2899L124.29 39.6999L122.45 38.7799Z" fill="url(#paint15_linear_20_2075)"/>
<path d="M36.2501 87.6499L35.0301 90.6999L29.9001 89.2699L27.5601 93.5099L23.5501 93.0699L23.3301 95.0999L28.6901 95.6899L30.9101 91.6699L36.2401 93.1599L38.0801 88.5699L36.2501 87.6499Z" fill="url(#paint16_linear_20_2075)"/>
<path d="M143.6 31.9999L145.19 34.6399C145.228 34.7053 145.283 34.7585 145.351 34.7935C145.418 34.8284 145.493 34.8437 145.569 34.8374C145.644 34.8311 145.716 34.8036 145.776 34.758C145.837 34.7124 145.883 34.6507 145.91 34.5799L147 31.6799L150 30.9799C150.073 30.9641 150.141 30.9279 150.195 30.8754C150.249 30.8229 150.287 30.7563 150.304 30.6833C150.322 30.6102 150.319 30.5336 150.295 30.4622C150.271 30.3909 150.228 30.3277 150.17 30.2799L147.79 28.2799L148.05 25.1999C148.055 25.1262 148.04 25.0525 148.007 24.9867C147.973 24.921 147.921 24.866 147.858 24.8276C147.795 24.7893 147.722 24.7693 147.649 24.7697C147.575 24.7701 147.502 24.7909 147.44 24.8299L144.83 26.4899L142 25.3199C141.93 25.2904 141.853 25.2813 141.779 25.2936C141.704 25.3059 141.635 25.3391 141.578 25.3893C141.521 25.4396 141.48 25.5048 141.459 25.5775C141.438 25.6502 141.439 25.7273 141.46 25.7999L142.23 28.7999L140.23 31.1299C140.178 31.1862 140.144 31.2561 140.13 31.3313C140.117 31.4066 140.126 31.484 140.155 31.5544C140.185 31.6249 140.234 31.6855 140.297 31.729C140.359 31.7725 140.433 31.7971 140.51 31.7999L143.6 31.9999Z" fill="url(#paint17_linear_20_2075)"/>
<path d="M145 102.51C145 102.876 144.891 103.234 144.687 103.539C144.484 103.843 144.194 104.08 143.855 104.22C143.517 104.36 143.144 104.396 142.785 104.324C142.426 104.251 142.096 104.074 141.838 103.815C141.58 103.555 141.404 103.224 141.334 102.865C141.264 102.505 141.302 102.133 141.444 101.795C141.585 101.457 141.824 101.169 142.129 100.967C142.435 100.765 142.793 100.658 143.16 100.66C143.402 100.66 143.642 100.708 143.866 100.801C144.09 100.894 144.293 101.03 144.464 101.202C144.635 101.374 144.771 101.578 144.863 101.803C144.955 102.027 145.001 102.267 145 102.51Z" fill="url(#paint18_linear_20_2075)"/>
<path d="M41.6796 71.34C41.7118 71.7408 41.6224 72.142 41.4231 72.4913C41.2238 72.8405 40.9238 73.1216 40.5624 73.2978C40.2009 73.474 39.7947 73.5371 39.3969 73.479C38.999 73.4208 38.6279 73.2441 38.3319 72.9719C38.036 72.6996 37.829 72.3445 37.738 71.9528C37.6469 71.5611 37.6761 71.1511 37.8216 70.7762C37.9671 70.4014 38.2222 70.0791 38.5537 69.8514C38.8851 69.6238 39.2775 69.5013 39.6796 69.5C40.1883 69.481 40.6838 69.6637 41.0584 70.0083C41.433 70.3529 41.6562 70.8316 41.6796 71.34Z" fill="url(#paint19_linear_20_2075)"/>
<path d="M82.9997 18.2399L85.4197 18.7199C85.4197 18.7199 88.9597 17.0599 89.2297 16.2699C89.4997 15.4799 89.3697 13.6299 89.8897 13.5199C90.0933 13.4673 90.3052 13.4553 90.5134 13.4846C90.7216 13.5139 90.922 13.584 91.1031 13.6908C91.2842 13.7976 91.4424 13.9391 91.5688 14.1071C91.6952 14.2751 91.7873 14.4663 91.8397 14.6699C92.1297 15.5499 91.1297 18.3299 91.3697 18.5899C92.1948 18.9014 93.0491 19.1292 93.9197 19.2699C94.2494 19.3405 94.5531 19.5013 94.7968 19.7344C95.0404 19.9675 95.2146 20.2637 95.2997 20.5899C95.3608 20.8088 95.3456 21.0419 95.2566 21.2509C95.1675 21.46 95.0099 21.6324 94.8097 21.7399L94.1697 22.0799L94.4697 22.7399C94.5799 22.9777 94.5925 23.2492 94.5046 23.496C94.4167 23.7429 94.2354 23.9454 93.9997 24.0599L93.4997 24.2999L93.7197 24.6999C93.7852 24.8216 93.8247 24.9555 93.8358 25.0933C93.8469 25.231 93.8294 25.3695 93.7843 25.5001C93.7392 25.6307 93.6675 25.7506 93.5738 25.8521C93.4801 25.9536 93.3663 26.0346 93.2397 26.0899L92.7997 26.2799V26.3999C92.8668 26.6375 92.8437 26.8915 92.7348 27.1131C92.6259 27.3346 92.4388 27.508 92.2097 27.5999L91.7697 27.7799L85.3497 26.4999C84.7437 26.3815 84.1685 26.1398 83.6597 25.7899L81.4697 24.9999C81.3559 24.9551 81.2619 24.8709 81.205 24.7626C81.1481 24.6543 81.132 24.5291 81.1597 24.4099L82.3797 18.6799C82.3878 18.6086 82.4108 18.5398 82.4472 18.478C82.4837 18.4162 82.5328 18.3628 82.5913 18.3213C82.6498 18.2798 82.7165 18.2511 82.7868 18.237C82.8572 18.223 82.9298 18.224 82.9997 18.2399Z" fill="url(#paint20_linear_20_2075)"/>
<defs>
<linearGradient id="paint0_linear_20_2075" x1="128.29" y1="163.64" x2="161.11" y2="106.79" gradientUnits="userSpaceOnUse">
<stop stop-color="#00254D"/>
<stop offset="1" stop-color="#003E82"/>
</linearGradient>
<linearGradient id="paint1_linear_20_2075" x1="161.61" y1="137.71" x2="157.01" y2="100.04" gradientUnits="userSpaceOnUse">
<stop stop-color="#295D9E"/>
<stop offset="1" stop-color="#1C60B7"/>
</linearGradient>
<linearGradient id="paint2_linear_20_2075" x1="143.42" y1="169.76" x2="167.32" y2="128.36" gradientUnits="userSpaceOnUse">
<stop stop-color="#003166"/>
<stop offset="1" stop-color="#003E82"/>
</linearGradient>
<linearGradient id="paint3_linear_20_2075" x1="28.3997" y1="105.23" x2="63.4297" y2="165.9" gradientUnits="userSpaceOnUse">
<stop stop-color="#003E82"/>
<stop offset="1" stop-color="#00254D"/>
</linearGradient>
<linearGradient id="paint4_linear_20_2075" x1="31.2298" y1="112.3" x2="61.6398" y2="164.96" gradientUnits="userSpaceOnUse">
<stop stop-color="#003E82"/>
<stop offset="1" stop-color="#003E82"/>
</linearGradient>
<linearGradient id="paint5_linear_20_2075" x1="35.8299" y1="142.47" x2="49.5999" y2="107.68" gradientUnits="userSpaceOnUse">
<stop stop-color="#295D9E"/>
<stop offset="1" stop-color="#1C60B7"/>
</linearGradient>
<linearGradient id="paint6_linear_20_2075" x1="24.0898" y1="130.37" x2="47.8998" y2="171.62" gradientUnits="userSpaceOnUse">
<stop stop-color="#003E82"/>
<stop offset="1" stop-color="#003166"/>
</linearGradient>
<linearGradient id="paint7_linear_20_2075" x1="20.96" y1="151.89" x2="52.98" y2="151.89" gradientUnits="userSpaceOnUse">
<stop stop-color="#003E82"/>
<stop offset="1" stop-color="#003E82"/>
</linearGradient>
<linearGradient id="paint8_linear_20_2075" x1="95.8896" y1="141.58" x2="95.8896" y2="57.5299" gradientUnits="userSpaceOnUse">
<stop stop-color="#295D9E"/>
<stop offset="1" stop-color="#1C60B7"/>
</linearGradient>
<linearGradient id="paint9_linear_20_2075" x1="83.9097" y1="78.8" x2="107.87" y2="120.31" gradientUnits="userSpaceOnUse">
<stop stop-color="#E3C75C"/>
<stop offset="1" stop-color="#AD8E36"/>
</linearGradient>
<linearGradient id="paint10_linear_20_2075" x1="86.93" y1="84.0399" x2="104.84" y2="115.06" gradientUnits="userSpaceOnUse">
<stop stop-color="#FCE281"/>
<stop offset="1" stop-color="#E3C75C"/>
</linearGradient>
<linearGradient id="paint11_linear_20_2075" x1="164.69" y1="87.86" x2="169.11" y2="95.51" gradientUnits="userSpaceOnUse">
<stop stop-color="#094B9F"/>
<stop offset="1" stop-color="#003E82"/>
</linearGradient>
<linearGradient id="paint12_linear_20_2075" x1="64.6" y1="38.1899" x2="70.17" y2="47.8399" gradientUnits="userSpaceOnUse">
<stop stop-color="#094B9F"/>
<stop offset="1" stop-color="#003E82"/>
</linearGradient>
<linearGradient id="paint13_linear_20_2075" x1="145.44" y1="67.9199" x2="164.92" y2="67.9199" gradientUnits="userSpaceOnUse">
<stop stop-color="#E3C75C"/>
<stop offset="1" stop-color="#AD8E36"/>
</linearGradient>
<linearGradient id="paint14_linear_20_2075" x1="33.3896" y1="40.34" x2="46.0196" y2="40.34" gradientUnits="userSpaceOnUse">
<stop stop-color="#E3C75C"/>
<stop offset="1" stop-color="#AD8E36"/>
</linearGradient>
<linearGradient id="paint15_linear_20_2075" x1="109.54" y1="42.7999" x2="124.29" y2="42.7999" gradientUnits="userSpaceOnUse">
<stop stop-color="#094B9F"/>
<stop offset="1" stop-color="#003E82"/>
</linearGradient>
<linearGradient id="paint16_linear_20_2075" x1="23.3301" y1="91.6699" x2="38.0801" y2="91.6699" gradientUnits="userSpaceOnUse">
<stop stop-color="#E3C75C"/>
<stop offset="1" stop-color="#AD8E36"/>
</linearGradient>
<linearGradient id="paint17_linear_20_2075" x1="142.23" y1="25.0199" x2="147.32" y2="33.8399" gradientUnits="userSpaceOnUse">
<stop stop-color="#E3C75C"/>
<stop offset="1" stop-color="#AD8E36"/>
</linearGradient>
<linearGradient id="paint18_linear_20_2075" x1="142.25" y1="100.91" x2="144.09" y2="104.1" gradientUnits="userSpaceOnUse">
<stop stop-color="#E3C75C"/>
<stop offset="1" stop-color="#AD8E36"/>
</linearGradient>
<linearGradient id="paint19_linear_20_2075" x1="38.7396" y1="69.71" x2="40.6196" y2="72.97" gradientUnits="userSpaceOnUse">
<stop stop-color="#094B9F"/>
<stop offset="1" stop-color="#003E82"/>
</linearGradient>
<linearGradient id="paint20_linear_20_2075" x1="88.2297" y1="13.4799" x2="88.2297" y2="27.7799" gradientUnits="userSpaceOnUse">
<stop stop-color="#E3C75C"/>
<stop offset="1" stop-color="#AD8E36"/>
</linearGradient>
</defs>
</svg>
