<svg width="48" height="48" viewBox="0 0 48 48" fill="none" xmlns="http://www.w3.org/2000/svg">
<g clip-path="url(#clip0_12_595)">
<path d="M42.4291 35.1429C42.431 35.4357 42.3786 35.7263 42.2748 36C42.1531 36.3628 41.9476 36.6917 41.6748 36.96C41.1934 37.443 40.5396 37.7144 39.8577 37.7143H38.1434C39.5636 37.7143 40.7148 38.8656 40.7148 40.2857C40.7167 40.5785 40.6644 40.8691 40.5606 41.1429C40.4388 41.5056 40.2333 41.8345 39.9606 42.1029C39.4792 42.5858 38.8253 42.8572 38.1434 42.8572H36.4291C37.8493 42.8572 39.0006 44.0084 39.0006 45.4286C39.0006 46.8488 37.8493 48 36.4291 48H21.0006C19.6891 48.0206 18.3858 47.7908 17.1606 47.3229C16.3206 46.9886 15.5834 46.4486 14.7691 46.0543C13.9046 45.6416 12.9586 45.4278 12.0006 45.4286H9.8577L11.572 28.2857C13.3168 28.2838 15.0245 27.781 16.492 26.8372C19.5863 24.8657 24.2748 21.2829 23.2634 16.7229C22.9206 15.1886 22.792 13.6886 24.4291 12.8572C26.2463 11.9314 27.9863 13.1057 28.8348 14.5886C31.6891 19.5857 26.7006 27.4286 26.7006 27.4286H39.0006C40.4207 27.4286 41.572 28.5799 41.572 30C41.5738 30.2928 41.5215 30.5834 41.4177 30.8572C41.296 31.2199 41.0904 31.5488 40.8177 31.8172C40.3363 32.3001 39.6824 32.5715 39.0006 32.5714H39.8577C41.2779 32.5714 42.4291 33.7227 42.4291 35.1429Z" fill="#FDD7AD"/>
<path d="M40.5606 41.1428C40.4388 41.5056 40.2333 41.8345 39.9606 42.1028C39.4792 42.5858 38.8253 42.8572 38.1434 42.8571H33.8577C33.3843 42.8571 33.0006 42.4734 33.0006 42C33.0006 41.5266 33.3843 41.1428 33.8577 41.1428H40.5606Z" fill="#F9C795"/>
<path d="M42.2748 36C42.1531 36.3627 41.9476 36.6916 41.6748 36.96C41.1934 37.4429 40.5396 37.7143 39.8577 37.7143H33.8577C33.3843 37.7143 33.0006 37.3305 33.0006 36.8571C33.0006 36.3838 33.3843 36 33.8577 36H42.2748Z" fill="#F9C795"/>
<path d="M41.4177 30.8572C41.296 31.2199 41.0904 31.5488 40.8177 31.8172C40.3363 32.3001 39.6825 32.5715 39.0006 32.5715H33.8577C33.3843 32.5715 33.0006 32.1877 33.0006 31.7143C33.0006 31.2409 33.3843 30.8572 33.8577 30.8572H41.4177Z" fill="#F9C795"/>
<path d="M9.00056 25.7144H4.71485C3.29469 25.7144 2.14342 26.8656 2.14342 28.2858V45.4286C2.14342 46.8488 3.29469 48.0001 4.71485 48.0001H9.00056C10.4207 48.0001 11.572 46.8488 11.572 45.4286V28.2858C11.572 26.8656 10.4207 25.7144 9.00056 25.7144Z" fill="#3B97D3"/>
<path d="M41.5716 18.8573C41.0982 18.8573 40.7144 18.4735 40.7144 18.0001V16.2859C40.7144 15.8125 41.0982 15.4287 41.5716 15.4287C42.045 15.4287 42.4287 15.8125 42.4287 16.2859V18.0001C42.4287 18.4735 42.045 18.8573 41.5716 18.8573Z" fill="#FDF9F9"/>
<path d="M41.5716 24.0001C41.0982 24.0001 40.7144 23.6163 40.7144 23.143V21.4287C40.7144 20.9553 41.0982 20.5715 41.5716 20.5715C42.045 20.5715 42.4287 20.9553 42.4287 21.4287V23.143C42.4287 23.6163 42.045 24.0001 41.5716 24.0001Z" fill="#FDF9F9"/>
<path d="M45.0001 20.5715H43.2859C42.8125 20.5715 42.4287 20.1877 42.4287 19.7143C42.4287 19.2409 42.8125 18.8572 43.2859 18.8572H45.0001C45.4735 18.8572 45.8573 19.2409 45.8573 19.7143C45.8573 20.1877 45.4735 20.5715 45.0001 20.5715Z" fill="#FDF9F9"/>
<path d="M39.8573 20.5715H38.143C37.6696 20.5715 37.2859 20.1877 37.2859 19.7143C37.2859 19.2409 37.6696 18.8572 38.143 18.8572H39.8573C40.3307 18.8572 40.7144 19.2409 40.7144 19.7143C40.7144 20.1877 40.3307 20.5715 39.8573 20.5715Z" fill="#FDF9F9"/>
<path d="M21.8578 6.85723C21.6305 6.85719 21.4125 6.76685 21.2518 6.60609L19.9661 5.32038C19.7433 5.10517 19.6539 4.78648 19.7324 4.4868C19.8108 4.18712 20.0449 3.95308 20.3445 3.87464C20.6442 3.79619 20.9629 3.88556 21.1781 4.10838L22.4638 5.39409C22.7089 5.63923 22.7822 6.00784 22.6496 6.32808C22.5169 6.64832 22.2045 6.85716 21.8578 6.85723Z" fill="#6CA6FF"/>
<path d="M18.0004 2.99997C17.7731 2.99992 17.5552 2.90958 17.3944 2.74882L16.1087 1.46311C15.7839 1.12678 15.7885 0.592179 16.1192 0.26155C16.4498 -0.0690794 16.9844 -0.073725 17.3207 0.251108L18.6064 1.53682C18.8515 1.78196 18.9248 2.15057 18.7922 2.47081C18.6595 2.79106 18.3471 2.99989 18.0004 2.99997Z" fill="#6CA6FF"/>
<path d="M16.7147 6.85723C16.3681 6.85716 16.0556 6.64832 15.923 6.32808C15.7903 6.00784 15.8636 5.63923 16.1087 5.39409L17.3944 4.10838C17.6096 3.88556 17.9283 3.79619 18.228 3.87464C18.5277 3.95308 18.7617 4.18712 18.8401 4.4868C18.9186 4.78648 18.8292 5.10517 18.6064 5.32038L17.3207 6.60609C17.16 6.76685 16.942 6.85719 16.7147 6.85723Z" fill="#6CA6FF"/>
<path d="M20.5718 3.00006C20.2252 2.99998 19.9127 2.79115 19.7801 2.4709C19.6475 2.15066 19.7208 1.78205 19.9658 1.53691L21.2515 0.251199C21.4667 0.0283788 21.7854 -0.0609834 22.0851 0.0174584C22.3848 0.0959002 22.6188 0.329939 22.6973 0.629621C22.7757 0.929303 22.6864 1.24799 22.4635 1.4632L21.1778 2.74891C21.0171 2.90967 20.7991 3.00001 20.5718 3.00006Z" fill="#6CA6FF"/>
<path d="M39.9992 7.47867C37.8437 8.29473 36.1445 10.0002 35.3363 12.1587C35.2713 12.3269 35.1078 12.4365 34.9274 12.4326C34.7471 12.4288 34.5884 12.3124 34.5306 12.1415C33.7126 9.99324 32.016 8.29662 29.8677 7.47867C29.6921 7.42305 29.5727 7.26005 29.5727 7.07581C29.5727 6.89157 29.6921 6.72857 29.8677 6.67295C32.0207 5.86223 33.7199 4.16305 34.5306 2.01009C34.5862 1.83445 34.7492 1.71509 34.9335 1.71509C35.1177 1.71509 35.2807 1.83445 35.3363 2.01009C36.1472 4.16897 37.8545 5.87004 40.0163 6.67295C40.1846 6.73799 40.2941 6.90145 40.2903 7.08182C40.2864 7.26219 40.1701 7.42084 39.9992 7.47867Z" fill="#F3D55B"/>
<path d="M14.6063 15.0258C13.4239 15.6044 12.4678 16.5605 11.8892 17.7429C11.824 17.8983 11.672 17.9994 11.5035 17.9994C11.335 17.9994 11.183 17.8983 11.1178 17.7429C10.541 16.5591 9.58442 15.6026 8.40063 15.0258C8.24526 14.9606 8.14417 14.8086 8.14417 14.6401C8.14417 14.4716 8.24526 14.3195 8.40063 14.2544C9.58442 13.6776 10.541 12.721 11.1178 11.5372C11.183 11.3819 11.335 11.2808 11.5035 11.2808C11.672 11.2808 11.824 11.3819 11.8892 11.5372C12.4678 12.7197 13.4239 13.6757 14.6063 14.2544C14.7617 14.3195 14.8628 14.4716 14.8628 14.6401C14.8628 14.8086 14.7617 14.9606 14.6063 15.0258Z" fill="#F3D55B"/>
</g>
<defs>
<clipPath id="clip0_12_595">
<rect width="48" height="48" fill="white"/>
</clipPath>
</defs>
</svg>
