<svg width="18" height="18" viewBox="0 0 18 18" fill="none" xmlns="http://www.w3.org/2000/svg">
<g clip-path="url(#clip0_12_640)">
<path d="M7.34765 2.73322C7.34765 1.76396 8.1362 0.97541 9.10546 0.97541H9.7138L9.53029 0.465293C9.4271 0.178418 9.15675 0 8.86861 0C8.78877 0 8.70756 0.0137109 8.62818 0.0426094L2.481 2.27999C2.11555 2.41302 1.92747 2.81742 2.06127 3.18259L2.38608 4.06916H7.34765V2.73322Z" fill="#FFC529"/>
<path d="M9.10547 2.03003C8.71713 2.03003 8.40234 2.34482 8.40234 2.73315V4.06909H14.5547V2.73315C14.5547 2.34482 14.2399 2.03003 13.8516 2.03003H9.10547Z" fill="#FFC529"/>
<path d="M16.418 14.2117H13.957C12.5031 14.2117 11.3203 13.0288 11.3203 11.575C11.3203 10.1211 12.5031 8.93823 13.957 8.93823H16.418V6.53003C16.418 5.75339 15.7884 5.12378 15.0117 5.12378H1.40625C0.629613 5.12378 0 5.75339 0 6.53003V16.5937C0 17.3703 0.629613 17.9999 1.40625 17.9999H15.0117C15.7884 17.9999 16.418 17.3703 16.418 16.5937V14.2117Z" fill="#FFC529"/>
<path d="M17.4727 9.99292H13.957C13.0847 9.99292 12.375 10.7026 12.375 11.575C12.375 12.4473 13.0847 13.157 13.957 13.157H17.4727C17.7634 13.157 18 12.9204 18 12.6296V10.5203C18 10.2295 17.7634 9.99292 17.4727 9.99292ZM13.957 12.1023C13.6658 12.1023 13.4297 11.8662 13.4297 11.575C13.4297 11.2837 13.6658 11.0476 13.957 11.0476C14.2483 11.0476 14.4844 11.2837 14.4844 11.575C14.4844 11.8662 14.2483 12.1023 13.957 12.1023Z" fill="#FFC529"/>
</g>
<defs>
<clipPath id="clip0_12_640">
<rect width="18" height="18" fill="white"/>
</clipPath>
</defs>
</svg>
